<?xml version="1.0" encoding="UTF-8"?>
<svg id="Camada_2" data-name="Camada 2" xmlns="http://www.w3.org/2000/svg" viewBox="0 0 300 224.9">
  <defs>
    <style>
      .cls-1 {
        fill: #fff;
        stroke-width: 0px;
      }
    </style>
  </defs>
  <g id="graficos">
    <g>
      <path class="cls-1" d="m58.61,74.53C101.81,9.92,229.89-30.29,300,28.73c-29.51-14.36-146.21-37.7-238.06,47.27l-3.33-1.46Z"/>
      <path class="cls-1" d="m112.99,100.94c2.46-21.13,36.06-21.29,37.85,0h-37.85Zm180.89-17.49c2.01,0,3.99.15,5.9.45v-16.22c-31.12-5.6-65.9,14.19-61.24,43.76-1-11.6-47.33-13.6-45.5-21.95,2.82-9.73,23.89-7.4,33.44-2.5v-16.99c-20.3-8.2-57.17-.33-56.89,21.24-12-39.84-84.97-25.84-79.48,17.73-.75-16.28-55.67-18.04-55.45-28.88-1.26-8.85,19.81-8.61,23.94-5.55h0c4.79-5.94,9.95-11.65,15.41-17.07-37.52-20.67-98.69,23.64-46.61,47.96,63.83,9.02,36.29,37.71-5.13,13.62-5.04,6.81-10.24,14.28-13,18.88,23.49,15.54,82.21,17.19,82.9-17.13,7.43,22.68,32.48,30.68,57.72,23.75v-16.88c-16.18,5.06-32.14,3.34-36.91-13.29h59.28c.4-3.87.42-7.94-.04-11.86,1.63,9.67,48,10.93,45.36,21.23-4.22,13.78-34.55,4.56-44.96-1.41v19.5c23.17,13.2,69.82,6.5,68.38-21.28,9.4,22.16,37.88,29.14,58.77,25.35v-16.48c-40.49,7.17-49.76-45.77-5.9-45.97"/>
      <path class="cls-1" d="m31.83,106.83c-6,6.98-17.82,23.26-22.55,31.1-4.65-2.72-7.1-4.47-9.28-6.15,7.18-7.86,18.17-19.45,27.18-26.43,0,0,4.1,1.27,4.65,1.47"/>
      <path class="cls-1" d="m299.79,217.38c-16.98,1.16-16.61-23.18,0-21.8v-7.27c-11.6-.41-21.57,5.85-23.43,14.74-.43-7.65-8.03-11.54-17.46-10.78v7.33c4.01.03,8.23.83,8.26,5.38-7.93-1.48-21.38-.31-21.91,6.8,6.01-20.59-29.15-27.16-31.13-6.81-1.52-18.73-35.17-15.62-33.1,3.62-.78-5.7-22.56-6.1-21.67-11.29-.19-4.21,8.67-3.66,11.87-2.16v-7.74c-20.51-6-32.24,19.44-6.85,21.95,21.4,5.66-4.52,12.46-10.73,3.8l-5.79,5.76c8.95,7.95,33.33,9.19,34.35-4.91,2.57,6.34,10.18,10.2,18.25,9.59v-6.91c-4.59.5-8.85-1.45-9.81-5.87h23.36v12.27h9.83c1.29-5.53-3.98-23.07,5.8-23.25,9.86.13,4.63,17.73,5.89,23.25h9.73v-6.65c1.74,8.47,17.09,8.88,21.85,3.2v3.49h9.4v-12.63c2.13,8.5,12.16,14.66,23.29,14.15v-7.25Zm-32.59-5.1h0c-9.98,15.24-22.99-6.32.03-1.96,0,.3.08,1.05-.03,1.96m-76.67-6.85c.95-8.45,13.95-8.52,14.64,0h-14.64Z"/>
      <path class="cls-1" d="m109.85,195.22c-23.14-2.92-22.37,23.49,0,21.16v8.37c-11.9.56-25.72-3.46-29.09-13.96v14.01h-12.64l-21.8-24.2v24.2c-5.19,0-13.03,0-18.17,0-33.8,2.31-38.78-37.41-2.79-37.93v8.37c-23.85,2.71-10.27,25.69,8.45,21.21v-29.65c12.15-3.25,30.51,21.24,34.6,25.54v-25.54h12.36v13.42c3.36-9.84,17.25-13.94,29.09-13.36v8.36Z"/>
    </g>
  </g>
</svg>