<?xml version="1.0" encoding="UTF-8"?>
<svg id="Camada_2" data-name="Camada 2" xmlns="http://www.w3.org/2000/svg" viewBox="0 0 300 225.95">
  <defs>
    <style>
      .cls-1 {
        fill: #f2bc00;
      }

      .cls-1, .cls-2 {
        stroke-width: 0px;
      }

      .cls-2 {
        fill: #004a89;
      }
    </style>
  </defs>
  <g id="graficos">
    <g>
      <path class="cls-1" d="m58.62,75.67C78.48,50.47,133.24,0,207.9,0c52.41,0,92.1,29.87,92.1,29.87-29.51-14.36-146.21-37.7-238.06,47.26l-3.32-1.46Z"/>
      <path class="cls-2" d="m113,102.07c1.98-9.76,8.76-16.12,19.17-16.12s17.18,6.5,18.68,16.12h-37.85Zm180.89-17.49c2.01,0,3.99.16,5.9.46v-16.23c-3.56-.49-7.36-.72-11.47-.72-28.53,0-50.07,17.08-50.07,39.92,0,1.56.1,3.08.29,4.57-4.18-7.03-13.47-10.61-26.68-13.34-16.82-3.42-19.15-4.91-18.81-8.61.32-3.53,5.97-6.78,14.4-6.78,5.39,0,12.61,1.28,19.04,4.28v-16.99c-6.2-1.9-12.96-3.16-20.27-3.16-21.23,0-35.48,10.17-36.61,24.14,0,.09,0,.17-.02.26-5.13-13.76-17.11-24.08-37.73-24.08-24.82,0-41.78,18.15-41.78,40.15,0,.56.01,1.11.03,1.66-4.67-10.13-16.84-14.8-33.27-18.38-19.41-4.17-22.17-6.07-22.17-10.5s4.96-7.87,12.69-7.71c6.01.13,9.6,1.57,11.25,2.16h0,0c4.8-5.95,9.95-11.65,15.41-17.07-8.12-2.96-17-4.49-26.57-4.49-23.08,0-39.21,11.55-39.21,28.92,0,13.32,6.97,19.38,19.16,23.53.65.2,2.56.8,3.67,1.15,4.2,1.22,8.91,2.3,14.08,3.4,19.04,4.09,20.63,7.52,20.63,11.3,0,4.45-5.3,7.11-14.16,7.11-10.14,0-19.52-2.99-29.34-9.34-5.04,6.81-10.23,14.29-13,18.87,12.34,6.72,26.75,10.86,41.88,10.86,24.65,0,40.2-10.61,41.02-27.99,5.21,15.83,19.8,26.1,39.5,26.1,3.79,0,9.24-.13,18.22-2.36v-16.88c-8.34,2.41-11.92,2.67-16.82,2.41-9.8-.51-17.8-6.03-20.1-15.71h59.28c.15-1.98.31-3.25.31-5.38v-.29c0-2.08-.11-4.15-.34-6.19,4.51,6.22,14.39,8.75,27.94,11.49,16.51,3.35,17.42,5.87,17.42,9.75,0,3.41-4.4,7.34-14.15,7.02-10.02-.33-21.75-3.32-30.81-8.44v19.49c9.45,4.23,21.43,6.86,30.74,6.86,22.33,0,37.66-13.08,37.66-27.21,0-.31-.01-.62-.02-.93,3.95,9.26,11.72,16.29,20.54,20.58,8.79,4.28,18.21,5.62,25.94,5.68,4.55.03,8.49-.3,12.28-.9v-16.48c-1.91.31-3.89.47-5.9.47-16.52,0-29.93-10.4-29.93-23.22s13.41-23.22,29.93-23.22"/>
      <path class="cls-1" d="m31.84,107.96c-6,6.97-17.83,23.27-22.55,31.09-4.65-2.71-7.1-4.47-9.28-6.15,7.18-7.86,18.17-19.45,27.18-26.43,0,0,4.11,1.27,4.66,1.48"/>
      <path class="cls-2" d="m299.79,218.52c-.17,0-.34,0-.52,0-7.17,0-12.37-4.59-12.37-10.91v-.14c0-6.05,5.21-10.78,11.86-10.78.36,0,.7.01,1.03.03v-7.26c-.31-.01-.63-.01-.95-.01-11.54,0-20.57,6.13-22.48,14.74-.82-6.82-5.55-10.8-15.14-10.8-.43,0-1.92,0-2.32.02v7.33c1.89.02,4.48.34,5.64.95,1.7.89,2.58,2.4,2.62,4.44-2.32-.27-4.94-.46-7.21-.51-9.01-.23-13.59,2.65-14.7,7.31v-4.76c0-8.2-5.01-14.6-15.62-14.6-9.71,0-14.74,5.36-15.52,12.55-1.24-7.09-6.34-12.89-16.17-12.89s-16.94,7.13-16.94,15.77v.11c0,.21,0,.42.01.63-2-3.26-6.44-5.04-12.9-6.44-7.69-1.64-8.77-2.43-8.77-4.86v-.11c0-1.79,1.97-3.22,5.72-3.22,1.91,0,4.41.52,6.16,1.17v-7.75c-1.63-.28-4.13-.61-6.03-.61-9.09,0-15.56,4.44-15.56,11.15v.1c0,7.34,5.77,9.4,14.73,11.3,7.43,1.58,8.13,2.64,8.13,4.7v.1c0,2.17-2.41,3.48-6.42,3.48-5.08,0-8.45-1.74-12.45-4.49l-5.78,5.76c5.34,3.96,11.31,5.92,18.04,5.92,9.31,0,15.93-3.88,16.31-10.83,2.53,5.91,8.83,9.64,16.7,9.64.3,0,1.25-.04,1.55-.05v-6.91c-.24,0-1.17.06-1.42.06-4.35,0-7.41-2.03-8.38-5.93h23.36v12.28h9.82v-16.64c.18-3.04,1.37-6.62,5.81-6.62s5.71,3.58,5.89,6.62v16.64h9.73v-6.65c1.16,4.57,5.89,7.04,11.49,7.04,4.74,0,8-1.53,10.36-3.85v3.49h9.4v-12.63c2.17,8.19,11.14,14.17,22.18,14.17.39,0,.74,0,1.11-.02v-7.25Zm-32.6-5.09h0c-.85,4.43-5.42,5.09-6.46,5.15-7.4.39-7.66-4.67-5.17-6.21,3.34-2.07,11.66-.91,11.66-.91,0,.3.08,1.05-.03,1.97m-76.67-6.86c.77-3.9,3.39-6.45,7.42-6.45s6.65,2.6,7.22,6.45h-14.65Z"/>
      <path class="cls-2" d="m109.85,196.35c-.68-.06-1.26-.09-1.81-.09-9.3,0-15.66,3.62-15.66,10.17s6.44,11.17,15.66,11.17c.56,0,1.14-.02,1.81-.08v8.37h-.04c-.58.03-1.17.06-1.76.06-11.67,0-24.01-4.03-27.29-14.03v14.01h-12.64l-21.8-24.2v24.2h-18.41C14.37,225.88,0,220.39,0,206.45,0,194.32,12.62,188.71,25.35,188v8.37c-7.76.66-12.89,4.17-12.89,10.05,0,6.51,6.35,11.1,15.47,11.17h5.86v-29.65c6.84,0,13.75,2.42,19.47,8.76,5.53,6.13,15.14,16.78,15.14,16.78v-25.54h12.35v13.42c3.28-9.37,15.62-13.43,27.29-13.43.6,0,1.22.04,1.8.07v8.36Z"/>
    </g>
  </g>
</svg>